<mxfile host="app.diagrams.net" modified="2021-01-02T19:57:02.427Z" agent="5.0 (Macintosh; Intel Mac OS X 10_15_6) AppleWebKit/605.1.15 (KHTML, like Gecko) Version/14.0.1 Safari/605.1.15" etag="bk41C_NwOURjD914aaFr" version="14.1.7" type="github">
  <diagram id="cLjCFDDv4HLOv7hv9Nwq" name="Page-1">
    <mxGraphModel dx="526" dy="490" grid="1" gridSize="10" guides="1" tooltips="1" connect="1" arrows="1" fold="1" page="1" pageScale="1" pageWidth="827" pageHeight="1169" math="0" shadow="0">
      <root>
        <mxCell id="0" />
        <mxCell id="1" parent="0" />
        <mxCell id="9DXl7abPBas1Yyxl59b3-11" value="" style="edgeStyle=orthogonalEdgeStyle;rounded=0;orthogonalLoop=1;jettySize=auto;html=1;" edge="1" parent="1" source="7gz7CwpgAnrN71xYVUwf-1" target="7gz7CwpgAnrN71xYVUwf-11">
          <mxGeometry relative="1" as="geometry" />
        </mxCell>
        <mxCell id="7gz7CwpgAnrN71xYVUwf-1" value="" style="aspect=fixed;html=1;points=[];align=center;image;fontSize=12;image=img/lib/mscae/CustomDomain.svg;" parent="1" vertex="1">
          <mxGeometry x="255" y="193" width="50" height="42" as="geometry" />
        </mxCell>
        <mxCell id="9DXl7abPBas1Yyxl59b3-10" value="" style="edgeStyle=orthogonalEdgeStyle;rounded=0;orthogonalLoop=1;jettySize=auto;html=1;" edge="1" parent="1" source="7gz7CwpgAnrN71xYVUwf-2" target="7gz7CwpgAnrN71xYVUwf-1">
          <mxGeometry relative="1" as="geometry" />
        </mxCell>
        <mxCell id="7gz7CwpgAnrN71xYVUwf-2" value="" style="shape=image;html=1;verticalAlign=top;verticalLabelPosition=bottom;labelBackgroundColor=#ffffff;imageAspect=0;aspect=fixed;image=https://cdn3.iconfinder.com/data/icons/interior-design-18/512/N_T_1050Artboard_1_copy_14-128.png" parent="1" vertex="1">
          <mxGeometry x="49" y="150" width="128" height="128" as="geometry" />
        </mxCell>
        <object label="Azure Frontdoor (DNS alias cpd.lap-it.com)" Text="Azure front door&#xa;" id="7gz7CwpgAnrN71xYVUwf-5">
          <mxCell style="text;html=1;strokeColor=none;fillColor=none;align=center;verticalAlign=middle;whiteSpace=wrap;rounded=0;" parent="1" vertex="1">
            <mxGeometry x="23" y="240" width="180" height="70" as="geometry" />
          </mxCell>
        </object>
        <mxCell id="7gz7CwpgAnrN71xYVUwf-6" value="Linux WebApp running NodeJS 12.x" style="text;html=1;strokeColor=none;fillColor=none;align=center;verticalAlign=middle;whiteSpace=wrap;rounded=0;" parent="1" vertex="1">
          <mxGeometry x="235" y="252.5" width="90" height="45" as="geometry" />
        </mxCell>
        <mxCell id="7gz7CwpgAnrN71xYVUwf-7" value="" style="shape=image;html=1;verticalAlign=top;verticalLabelPosition=bottom;labelBackgroundColor=#ffffff;imageAspect=0;aspect=fixed;image=https://cdn4.iconfinder.com/data/icons/social-media-logos-6/512/71-github-128.png" parent="1" vertex="1">
          <mxGeometry x="73" y="10" width="80" height="80" as="geometry" />
        </mxCell>
        <mxCell id="7gz7CwpgAnrN71xYVUwf-8" value="GitHub action pushing code" style="text;html=1;strokeColor=none;fillColor=none;align=center;verticalAlign=middle;whiteSpace=wrap;rounded=0;" parent="1" vertex="1">
          <mxGeometry x="49" y="90" width="130" height="50" as="geometry" />
        </mxCell>
        <mxCell id="7gz7CwpgAnrN71xYVUwf-11" value="" style="aspect=fixed;html=1;points=[];align=center;image;fontSize=12;image=img/lib/azure2/app_services/API_Management_Services.svg;" parent="1" vertex="1">
          <mxGeometry x="380" y="184" width="65" height="60" as="geometry" />
        </mxCell>
        <mxCell id="7gz7CwpgAnrN71xYVUwf-12" value="API Management Gateway" style="text;html=1;strokeColor=none;fillColor=none;align=center;verticalAlign=middle;whiteSpace=wrap;rounded=0;" parent="1" vertex="1">
          <mxGeometry x="362.5" y="257.5" width="100" height="35" as="geometry" />
        </mxCell>
        <mxCell id="9DXl7abPBas1Yyxl59b3-2" value="" style="aspect=fixed;html=1;points=[];align=center;image;fontSize=12;image=img/lib/azure2/integration/Logic_Apps.svg;" vertex="1" parent="1">
          <mxGeometry x="529.5" y="38" width="67" height="52" as="geometry" />
        </mxCell>
        <mxCell id="9DXl7abPBas1Yyxl59b3-3" value="" style="aspect=fixed;html=1;points=[];align=center;image;fontSize=12;image=img/lib/azure2/integration/Logic_Apps.svg;" vertex="1" parent="1">
          <mxGeometry x="529.5" y="360" width="67" height="52" as="geometry" />
        </mxCell>
        <mxCell id="9DXl7abPBas1Yyxl59b3-4" value="AddCPDRecords" style="text;html=1;strokeColor=none;fillColor=none;align=center;verticalAlign=middle;whiteSpace=wrap;rounded=0;" vertex="1" parent="1">
          <mxGeometry x="473" y="95" width="180" height="40" as="geometry" />
        </mxCell>
        <mxCell id="9DXl7abPBas1Yyxl59b3-5" value="GetCPDRecords" style="text;html=1;strokeColor=none;fillColor=none;align=center;verticalAlign=middle;whiteSpace=wrap;rounded=0;" vertex="1" parent="1">
          <mxGeometry x="507" y="202.75" width="112" height="22.5" as="geometry" />
        </mxCell>
        <mxCell id="9DXl7abPBas1Yyxl59b3-6" value="" style="aspect=fixed;html=1;points=[];align=center;image;fontSize=12;image=img/lib/azure2/integration/Logic_Apps.svg;" vertex="1" parent="1">
          <mxGeometry x="529.5" y="140" width="67" height="52" as="geometry" />
        </mxCell>
        <mxCell id="9DXl7abPBas1Yyxl59b3-7" value="" style="aspect=fixed;html=1;points=[];align=center;image;fontSize=12;image=img/lib/azure2/integration/Logic_Apps.svg;" vertex="1" parent="1">
          <mxGeometry x="529.5" y="245.5" width="67" height="52" as="geometry" />
        </mxCell>
        <mxCell id="9DXl7abPBas1Yyxl59b3-8" value="AddCPDRecord" style="text;html=1;strokeColor=none;fillColor=none;align=center;verticalAlign=middle;whiteSpace=wrap;rounded=0;" vertex="1" parent="1">
          <mxGeometry x="544.5" y="310" width="37" height="32" as="geometry" />
        </mxCell>
        <mxCell id="9DXl7abPBas1Yyxl59b3-9" value="EditCPDRecord" style="text;html=1;strokeColor=none;fillColor=none;align=center;verticalAlign=middle;whiteSpace=wrap;rounded=0;" vertex="1" parent="1">
          <mxGeometry x="529.5" y="430" width="67" height="30" as="geometry" />
        </mxCell>
        <mxCell id="9DXl7abPBas1Yyxl59b3-13" value="" style="endArrow=classic;html=1;exitX=0.923;exitY=0.6;exitDx=0;exitDy=0;exitPerimeter=0;entryX=0.306;entryY=0.663;entryDx=0;entryDy=0;entryPerimeter=0;" edge="1" parent="1" source="7gz7CwpgAnrN71xYVUwf-11" target="9DXl7abPBas1Yyxl59b3-7">
          <mxGeometry width="50" height="50" relative="1" as="geometry">
            <mxPoint x="460" y="260" as="sourcePoint" />
            <mxPoint x="510" y="210" as="targetPoint" />
          </mxGeometry>
        </mxCell>
        <mxCell id="9DXl7abPBas1Yyxl59b3-14" value="" style="endArrow=classic;html=1;" edge="1" parent="1" target="9DXl7abPBas1Yyxl59b3-6">
          <mxGeometry width="50" height="50" relative="1" as="geometry">
            <mxPoint x="440" y="220" as="sourcePoint" />
            <mxPoint x="510" y="210" as="targetPoint" />
          </mxGeometry>
        </mxCell>
        <mxCell id="9DXl7abPBas1Yyxl59b3-15" value="" style="endArrow=classic;html=1;entryX=0.007;entryY=0.808;entryDx=0;entryDy=0;entryPerimeter=0;" edge="1" parent="1" target="9DXl7abPBas1Yyxl59b3-2">
          <mxGeometry width="50" height="50" relative="1" as="geometry">
            <mxPoint x="440" y="220" as="sourcePoint" />
            <mxPoint x="510" y="210" as="targetPoint" />
          </mxGeometry>
        </mxCell>
        <mxCell id="9DXl7abPBas1Yyxl59b3-16" value="" style="endArrow=classic;html=1;" edge="1" parent="1" target="9DXl7abPBas1Yyxl59b3-3">
          <mxGeometry width="50" height="50" relative="1" as="geometry">
            <mxPoint x="440" y="220" as="sourcePoint" />
            <mxPoint x="510" y="210" as="targetPoint" />
          </mxGeometry>
        </mxCell>
      </root>
    </mxGraphModel>
  </diagram>
</mxfile>
